# xmcd CD database file
#
# Track frame offsets:
#	150
#	20577
#	52220
#	83339
#	115949
#	131820
#	167041
#	189565
#	210767
#	235296
#	258202
#
# Disc length: 3673 seconds
#
# Revision: 0
# Processed by: cddbd v1.5.2PL0 Copyright (c) Steve Scherf et al.
# Submitted via: CDex 1.70beta2
#
DISCID=8e0e570b
DTITLE=BLU SHUHURU - aba wi
DYEAR=2009
DGENRE=Blues
TTITLE0=www.blues (send me a fe-mail)
TTITLE1=aba wi
TTITLE2=cornichons
TTITLE3=lobbies 'n' lies
TTITLE4=der egoist
TTITLE5=killer on a sunday afternoon
TTITLE6=leerlauf
TTITLE7=flussbettfieber
TTITLE8=trittbrettfahrer
TTITLE9=heimatloses gebell
TTITLE10=sense you been gone
EXTD=YEAR: 2009
EXTT0=
EXTT1=
EXTT2=
EXTT3=
EXTT4=
EXTT5=
EXTT6=
EXTT7=
EXTT8=
EXTT9=
EXTT10=
PLAYORDER=
